<svg width="39" height="41" viewBox="0 0 39 41" fill="none" xmlns="http://www.w3.org/2000/svg">
<path d="M31.6034 26.792H27.7334V28.136H31.6034V26.792Z" fill="#FCA21B"/>
<path d="M26.4445 26.792H22.5745V28.136H26.4445V26.792Z" fill="#FCA21B"/>
<path d="M21.2843 26.792H17.4143V28.136H21.2843V26.792Z" fill="#FCA21B"/>
<path d="M38.0444 13.892L25.2824 0.595C25.1064 0.407783 24.894 0.258453 24.6582 0.156146C24.4225 0.0538385 24.1684 0.000706271 23.9114 0H23.9054C23.6501 0.00114589 23.3977 0.0545246 23.1639 0.156851C22.93 0.259177 22.7195 0.408286 22.5454 0.595L9.00739 14.697H1.93539C1.41155 14.708 0.913512 14.9265 0.55069 15.3046C0.187869 15.6826 -0.0100582 16.1891 0.000393888 16.713V35.527C-0.0100582 36.0509 0.187869 36.5574 0.55069 36.9354C0.913512 37.3134 1.41155 37.532 1.93539 37.543H11.4914L13.4164 39.55C13.5924 39.7372 13.8048 39.8866 14.0405 39.9889C14.2763 40.0912 14.5304 40.1443 14.7874 40.145H14.7924C15.0478 40.1439 15.3004 40.0906 15.5344 39.9883C15.7685 39.8859 15.9791 39.7368 16.1534 39.55L18.0814 37.543H32.8934C33.4172 37.532 33.9153 37.3134 34.2781 36.9354C34.6409 36.5574 34.8388 36.0509 34.8284 35.527V20.095L38.0414 16.747C38.4091 16.3627 38.6143 15.8514 38.6143 15.3195C38.6143 14.7876 38.4091 14.2763 38.0414 13.892H38.0444ZM29.8444 7.244L22.6914 14.696H17.2104L27.1004 4.392L29.8444 7.244ZM23.4634 1.544C23.5204 1.4819 23.5896 1.43213 23.6665 1.39775C23.7435 1.36336 23.8267 1.34509 23.911 1.34406C23.9953 1.34303 24.0789 1.35926 24.1567 1.39176C24.2345 1.42425 24.3049 1.47232 24.3634 1.533L24.3744 1.544L26.1954 3.444L15.3954 14.699H10.8314L23.4634 1.544ZM15.2444 38.604C15.1871 38.6666 15.1174 38.7167 15.0398 38.7511C14.9622 38.7855 14.8783 38.8035 14.7934 38.804C14.7073 38.8037 14.6222 38.7858 14.5432 38.7514C14.4643 38.717 14.3932 38.6668 14.3344 38.604L13.3214 37.544H16.2634L15.2444 38.604ZM33.5444 35.529C33.5479 35.7036 33.4819 35.8725 33.361 35.9985C33.24 36.1245 33.074 36.1973 32.8994 36.201H1.93539C1.76078 36.1973 1.59477 36.1245 1.47383 35.9985C1.35289 35.8725 1.28691 35.7036 1.29039 35.529V26.12H33.5384L33.5444 35.529ZM33.5444 24.778H1.29039V20.744H33.5384L33.5444 24.778ZM33.5444 19.402H1.29039V16.713C1.28691 16.5384 1.35289 16.3695 1.47383 16.2435C1.59477 16.1175 1.76078 16.0447 1.93539 16.041H32.8934C33.068 16.0447 33.234 16.1175 33.355 16.2435C33.4759 16.3695 33.5419 16.5384 33.5384 16.713L33.5444 19.402ZM37.1384 15.796L34.8384 18.196V16.713C34.8488 16.1891 34.6509 15.6826 34.2881 15.3046C33.9253 14.9265 33.4272 14.708 32.9034 14.697H24.5084L30.7494 8.197L37.1304 14.845C37.2549 14.9737 37.3242 15.1459 37.3234 15.325C37.3232 15.5002 37.2547 15.6685 37.1324 15.794L37.1384 15.796Z" fill="#FCA21B"/>
<path d="M6.18639 34.874C6.28093 34.7888 6.36916 34.6969 6.45039 34.599C6.85004 35.0972 7.4261 35.4224 8.05914 35.5073C8.69217 35.5922 9.33359 35.4303 9.85039 35.055C10.1967 34.7985 10.4782 34.4646 10.6727 34.0801C10.8671 33.6955 10.9691 33.2709 10.9704 32.84C10.9846 32.1414 10.7208 31.4658 10.237 30.9618C9.75314 30.4577 9.08893 30.1664 8.39039 30.1519C8.26223 30.1502 8.13423 30.1616 8.00839 30.1859H7.99139H7.97239C7.37569 30.2913 6.83686 30.608 6.45439 31.0779C6.23934 30.8123 5.97227 30.5935 5.66959 30.4349C5.36691 30.2762 5.035 30.1811 4.69422 30.1553C4.35345 30.1296 4.01101 30.1737 3.68792 30.2851C3.36484 30.3965 3.06791 30.5727 2.81539 30.8029C2.29544 31.2815 1.97839 31.941 1.92929 32.6459C1.8802 33.3509 2.10279 34.0479 2.55139 34.594C2.76606 34.8593 3.03263 35.078 3.33477 35.2367C3.63691 35.3955 3.96827 35.4909 4.30857 35.5171C4.64886 35.5433 4.99092 35.4998 5.31381 35.3892C5.6367 35.2786 5.93362 35.1033 6.18639 34.874ZM8.22139 31.5099C8.27505 31.4994 8.32971 31.4947 8.38439 31.496C8.73362 31.5033 9.06564 31.649 9.30753 31.901C9.54941 32.153 9.68136 32.4907 9.67439 32.84C9.67437 33.1226 9.5859 33.3981 9.42139 33.628C9.39839 33.661 9.38039 33.695 9.35339 33.728C9.35339 33.733 9.34239 33.7369 9.33739 33.7419C9.21942 33.8794 9.07325 33.9898 8.90881 34.0657C8.74437 34.1416 8.56551 34.1813 8.38439 34.1819C8.05487 34.1628 7.7438 34.0235 7.51006 33.7905C7.27632 33.5574 7.13614 33.2468 7.11606 32.9173C7.09598 32.5878 7.19738 32.2624 7.40108 32.0027C7.60478 31.743 7.89663 31.567 8.22139 31.508V31.5099ZM4.51439 31.496C4.78252 31.485 5.0478 31.5544 5.27612 31.6955C5.50444 31.8365 5.68537 32.0426 5.79562 32.2872C5.90588 32.5319 5.94043 32.8039 5.89483 33.0684C5.84923 33.3328 5.72557 33.5776 5.53974 33.7712C5.35392 33.9648 5.11443 34.0984 4.85207 34.1548C4.58971 34.2112 4.31647 34.1878 4.0675 34.0877C3.81853 33.9875 3.60521 33.8152 3.45496 33.5929C3.30471 33.3705 3.22442 33.1083 3.22439 32.84C3.21742 32.4906 3.34951 32.1527 3.59161 31.9006C3.8337 31.6486 4.16499 31.5031 4.51439 31.496Z" fill="#FCA21B"/>
</svg>
