<svg width="594" height="517" viewBox="0 0 594 517" fill="none" xmlns="http://www.w3.org/2000/svg">
<path d="M493.499 352.782C493.227 353.16 492.953 353.552 492.667 353.93C490.43 357.038 488.084 360.15 485.628 363.265C481.563 368.436 477.211 373.619 472.628 378.788C468.809 383.136 464.811 387.471 460.678 391.767C459.913 392.59 459.123 393.413 458.331 394.221C421.702 432.032 376.356 467.194 346.521 487.353L346.494 487.366C330.15 498.413 318.471 504.95 315.416 504.95C313.752 504.95 306.071 500.681 294.598 493.2C267.055 475.25 217.671 438.85 177.427 398.871C172.966 394.457 168.642 390.005 164.454 385.514C162.23 383.137 160.048 380.749 157.933 378.359C156.568 376.831 155.231 375.303 153.922 373.776C151.93 371.478 150.002 369.185 148.138 366.896C144.277 362.182 140.671 357.477 137.32 352.782C81.0471 273.882 83.393 131.517 83.393 131.517C158.111 104.033 316.493 0 316.493 0C316.493 0 472.722 104.033 547.426 131.517C547.426 131.517 549.786 273.882 493.499 352.782Z" fill="#13B287"/>
<path d="M481.811 365.703C481.556 366.078 481.3 366.467 481.032 366.842C478.935 369.922 476.735 373.007 474.432 376.096C470.623 381.222 466.548 386.359 462.253 391.486C458.675 395.796 454.942 400.084 451.053 404.351C450.338 405.166 449.597 405.982 448.853 406.784C414.539 444.266 372.059 479.12 344.11 499.105L344.084 499.118C328.774 510.066 317.834 516.551 314.971 516.551C313.412 516.551 306.217 512.318 295.471 504.903C269.671 487.103 223.406 451.022 185.705 411.392C181.527 407.017 177.476 402.604 173.552 398.151C171.469 395.796 169.424 393.428 167.443 391.059C166.165 389.544 164.913 388.03 163.686 386.517C161.819 384.238 160.013 381.965 158.268 379.696C154.651 375.024 151.272 370.36 148.133 365.704C95.421 287.487 97.621 146.487 97.621 146.487C167.621 119.245 315.992 16.1179 315.992 16.1179C315.992 16.1179 462.347 119.245 532.33 146.487C532.33 146.487 534.541 287.487 481.811 365.703Z" fill="#09916C"/>
<path d="M457.126 348.629C456.908 348.949 456.691 349.28 456.461 349.6C454.676 352.225 452.804 354.853 450.843 357.485C447.598 361.851 444.125 366.23 440.465 370.596C437.417 374.268 434.238 377.922 430.927 381.557C430.317 382.251 429.686 382.947 429.055 383.631C399.818 415.567 363.622 445.264 339.808 462.291L339.786 462.303C326.741 471.632 317.421 477.157 314.986 477.157C313.656 477.157 307.527 473.55 298.368 467.232C276.384 452.068 236.968 421.323 204.844 387.557C201.283 383.83 197.831 380.069 194.488 376.275C192.713 374.268 190.971 372.25 189.288 370.233C188.198 368.943 187.131 367.652 186.088 366.361C184.499 364.421 182.961 362.484 181.472 360.55C178.39 356.569 175.512 352.596 172.837 348.629C127.92 281.989 129.793 163.955 129.793 163.955C189.421 140.737 315.841 52.8721 315.841 52.8721C315.841 52.8721 440.541 140.741 500.17 163.954C500.17 163.954 502.054 281.988 457.126 348.629Z" fill="#0A9A73"/>
<path d="M181.128 299.925L129.477 363.45L90.585 341.181L79.085 360.907C79.085 360.907 83.797 394.29 108.767 412.177C133.737 430.064 159.781 417.777 159.781 417.777L181.128 299.925Z" fill="#B6C6EF"/>
<path d="M217.483 249.724L216.729 257.631L216.436 260.724C216.436 260.724 190.07 302.089 176.984 340.324C172.284 354.069 169.316 372.745 167.45 391.059C166.172 389.544 164.92 388.03 163.693 386.517C161.826 384.238 160.02 381.965 158.275 379.696C160.115 354.535 163.641 328.805 170.275 312.575C187.029 271.558 217.483 249.724 217.483 249.724Z" fill="white"/>
<path d="M231.492 256.609L185.711 411.391C181.533 407.017 177.482 402.603 173.558 398.15C171.475 395.796 169.43 393.427 167.449 391.058C166.171 389.543 164.919 388.029 163.692 386.516C164.944 364.63 167.974 341.476 174.402 323.602C191.437 276.31 215.847 257.347 215.847 257.347C216.141 257.447 216.435 257.541 216.728 257.632C221.632 258.878 226.806 258.519 231.492 256.609Z" fill="#00486E"/>
<path d="M275.428 184.765C273.41 186.75 271.02 188.315 268.393 189.371C265.767 190.426 262.958 190.95 260.128 190.912L263.784 247.783C230.013 270.291 216.435 260.725 216.435 260.725L210.824 228.2C195.936 228.873 181.124 223.463 173.852 206.47C173.652 205.991 173.443 205.512 173.264 205.02C172.021 201.95 170.955 198.812 170.069 195.62C164.369 175.454 164.369 153.464 164.369 153.464C164.369 153.464 162.311 120.5 176.317 109.227C190.323 97.9541 224.536 95.4561 244.317 103.803C260.432 110.612 264.509 134.336 263.678 159.379C265.354 157.793 267.399 156.651 269.629 156.057C271.859 155.463 274.202 155.436 276.445 155.979C287.991 158.686 283.875 176.635 275.428 184.765Z" fill="#FFDDD3"/>
<path d="M189.252 169.904L191.175 189.379C191.175 189.379 185.544 189.24 183.621 192.995C181.698 196.75 194.06 198.282 196.258 195.916C198.456 193.55 192.549 169.208 190.763 167.816C188.977 166.424 189.252 169.904 189.252 169.904Z" fill="#D68583"/>
<path d="M206.405 200.629C206.405 200.629 203.105 206.472 196.928 207.863C190.751 209.254 187.039 206.472 187.039 206.472L206.405 200.629Z" fill="#E5A5A1"/>
<path d="M178.933 154.303C178.933 154.303 172.405 153.317 168.693 156.455C168.693 156.455 168.311 151.355 172.521 150.004C176.731 148.653 178.933 154.303 178.933 154.303Z" fill="#00486E"/>
<path d="M211.607 148.734C211.607 148.734 205.214 147.079 201.207 149.817C201.207 149.817 201.342 144.708 205.665 143.795C209.988 142.882 211.607 148.734 211.607 148.734Z" fill="#00486E"/>
<path d="M210.824 228.199C210.824 228.199 229.894 225.264 239.577 208.253C239.577 208.253 239.165 218.003 230.512 228.199C221.859 238.395 212.653 238.799 212.653 238.799L210.824 228.199Z" fill="#E5A5A1"/>
<path d="M295.479 504.902C269.679 487.102 223.414 451.021 185.713 411.391C181.535 407.016 177.484 402.603 173.56 398.15C177.816 361.85 185.1 318.178 196.717 299.113C205.944 284.013 219.248 268.93 231.492 256.613C241.344 246.677 251.704 237.259 262.533 228.398C262.533 228.398 297.474 258.218 302.419 298.698C307.364 339.178 295.479 504.902 295.479 504.902Z" fill="white"/>
<path d="M278.444 126.665C278.244 139.62 273.933 155.617 273.933 155.617C263.453 155.151 256.807 173.595 256.807 173.595C256.807 173.595 239.912 172.767 232.501 158.582C225.217 144.643 230.047 125.59 230.212 124.892C210.646 136.67 183.669 138.132 166.16 135.208C148.651 132.284 140.818 114.552 140.818 114.552C143.694 114.552 158.531 107.873 158.531 107.873C152.346 104.327 152.971 97.2339 152.971 97.2339C152.971 97.2339 157.29 97.6469 172.129 93.2729C186.968 88.8989 209.829 78.6599 233.524 83.0479C256.824 87.3479 261.205 103.368 261.345 103.9V103.912C261.345 103.912 261.421 103.912 261.545 103.925H261.596C262.205 103.956 262.812 104.025 263.412 104.132C266.225 104.574 268.884 105.707 271.15 107.431C273.417 109.154 275.219 111.414 276.396 114.007C276.698 114.661 276.965 115.331 277.196 116.014C278.203 119.47 278.625 123.07 278.444 126.665Z" fill="#19313E"/>
<path d="M168.29 190.755C167.05 190.751 165.842 190.367 164.828 189.654C163.814 188.941 163.043 187.935 162.619 186.77L158.734 176.337L159.934 175.88L163.819 186.313C164.209 187.389 164.973 188.289 165.971 188.849C166.969 189.408 168.135 189.591 169.257 189.362L182.133 186.738C183.3 186.495 184.336 185.83 185.043 184.87C185.75 183.911 186.079 182.725 185.966 181.538L185.025 169.201L186.298 169.101L187.239 181.43C187.38 182.932 186.962 184.434 186.065 185.647C185.168 186.86 183.855 187.7 182.378 188.006L169.502 190.63C169.103 190.712 168.697 190.754 168.29 190.755Z" fill="#9C9B9B"/>
<path d="M206.137 182.916C204.898 182.912 203.69 182.528 202.677 181.816C201.663 181.103 200.893 180.097 200.469 178.933L196.582 168.499L197.777 168.044L201.663 178.477C202.053 179.553 202.816 180.453 203.814 181.012C204.812 181.572 205.978 181.754 207.099 181.526L219.977 178.902C221.144 178.659 222.18 177.994 222.887 177.034C223.594 176.075 223.922 174.888 223.809 173.702L222.869 161.365L224.143 161.265L225.083 173.594C225.224 175.096 224.807 176.597 223.912 177.811C223.016 179.024 221.705 179.865 220.228 180.173L207.352 182.797C206.952 182.877 206.545 182.917 206.137 182.916Z" fill="#9C9B9B"/>
<path d="M219.904 155.571C216.839 155.902 204.254 158.561 197.91 159.922C196.976 160.129 196.137 160.638 195.522 161.369C194.906 162.101 194.548 163.015 194.504 163.97C191.461 163.271 188.265 163.755 185.566 165.324C185.255 164.7 184.764 164.182 184.157 163.839C183.549 163.495 182.853 163.341 182.158 163.396C179.094 163.727 166.508 166.386 160.165 167.747C159.135 167.974 158.222 168.567 157.594 169.414C156.966 170.262 156.666 171.308 156.749 172.36L157.749 176.46L161.017 175.739C161.017 175.739 159.779 170.882 161.359 170.114C162.939 169.346 180.329 165.3 181.954 165.893C183.579 166.486 184.545 170.45 184.545 170.45L187.045 169.874C186.897 168.708 186.6 167.565 186.161 166.474C187.436 165.726 188.847 165.239 190.311 165.042C191.776 164.845 193.266 164.941 194.693 165.326L195.493 168.633L198.761 167.912C198.761 167.912 197.523 163.055 199.103 162.287C200.683 161.519 218.073 157.473 219.698 158.066C221.323 158.659 222.289 162.623 222.289 162.623L224.789 162.047C224.789 162.047 224.047 155.125 219.904 155.571Z" fill="#00486E"/>
<path d="M223.296 157.469C223.296 157.469 228.445 157.057 240.738 157.469C248.787 157.808 256.801 158.718 264.721 160.193L263.421 161.693C263.421 161.693 247.399 160.248 238.333 160.248C233.703 160.188 229.074 160.397 224.468 160.874C224.139 159.719 223.748 158.582 223.296 157.469Z" fill="#126489"/>
<path d="M234.458 189.889C234.897 192.62 231.883 195.389 227.728 196.072C223.573 196.755 219.847 195.098 219.409 192.372C218.971 189.646 221.984 186.872 226.14 186.19C230.296 185.508 234.024 187.159 234.458 189.889Z" fill="#FFC9C3"/>
<path d="M173.777 204.954C173.598 204.979 173.431 205.005 173.265 205.018C172.023 201.948 170.957 198.809 170.071 195.618C170.756 195.373 171.461 195.19 172.179 195.073C176.332 194.388 180.065 196.044 180.499 198.773C180.933 201.502 177.931 204.269 173.777 204.954Z" fill="#FFC9C3"/>
<path d="M55.789 263.626L1.077 209.399L0 213.737L49.388 266.564L55.789 263.626Z" fill="white"/>
<path d="M81.1161 273.844L51.1561 252.697L40.0791 264.197L61.4361 294.59L81.1161 273.844Z" fill="#4570B4"/>
<path d="M242.967 411.288L240.846 413.488L220.551 434.612L193.765 462.464L174.927 441.613L173.175 439.671L123.41 384.588L121.675 382.672L68.256 323.536L66.53 321.636L56.03 310C53.0563 306.696 51.4182 302.404 51.4347 297.959C51.4511 293.514 53.1209 289.234 56.119 285.952C56.387 285.652 56.655 285.371 56.95 285.099L73.359 269.477C76.6136 266.357 80.9544 264.626 85.4626 264.65C89.9709 264.674 94.2929 266.452 97.514 269.606L242.967 411.288Z" fill="#8CB2FF"/>
<path d="M220.551 434.611L193.765 462.464L174.927 441.613L173.175 439.671L123.41 384.588L121.672 382.672L68.2531 323.536L66.5271 321.636L56.0271 310C53.0534 306.696 51.4153 302.404 51.4318 297.959C51.4482 293.514 53.118 289.234 56.1161 285.952C69.4161 303.011 96.4361 336.441 134.355 377.445C171.275 417.358 203.275 430.365 220.551 434.611Z" fill="#7AA5EA"/>
<path d="M242.967 411.286L240.846 413.486C236.437 414.886 228.833 415.453 218.946 409.176C202.781 398.913 89.3459 281.018 89.3459 281.018C84.8349 273.356 84.4269 267.418 87.5819 264.788C91.3277 265.27 94.8143 266.96 97.5129 269.602L242.967 411.286Z" fill="#ABCBFF"/>
<path d="M220.656 429.629L275.086 490.78L266.627 495.829L209.142 438.329L220.656 429.629Z" fill="#4570B4"/>
<path d="M269.199 487.327L284.599 478.77L288.44 483.789L259.559 509.817L254.191 504.427L269.199 487.327Z" fill="#8CB2FF"/>
<path d="M186.506 425.926L174.923 441.613L173.172 439.671L184.457 424.371C184.946 423.707 185.186 422.893 185.134 422.07C185.083 421.247 184.744 420.469 184.176 419.871L137.708 370.832L123.408 384.59L121.67 382.674L135.933 368.968L84.1741 314.35C83.5722 313.715 82.7511 313.334 81.8779 313.283C81.0047 313.233 80.1451 313.517 79.4741 314.078L68.2541 323.538L66.5281 321.638L77.8391 312.099C79.0037 311.119 80.4985 310.62 82.0184 310.704C83.5383 310.788 84.9688 311.449 86.0181 312.552L186.018 418.073C187.008 419.117 187.6 420.475 187.689 421.911C187.778 423.347 187.359 424.768 186.506 425.926Z" fill="#4570B4"/>
<path d="M89.3459 325.42L96.2969 318.348" stroke="#4570B4" stroke-linecap="round" stroke-linejoin="round"/>
<path d="M96.9561 333.356L103.907 326.284" stroke="#4570B4" stroke-linecap="round" stroke-linejoin="round"/>
<path d="M104.566 341.292L111.517 334.22" stroke="#4570B4" stroke-linecap="round" stroke-linejoin="round"/>
<path d="M112.176 349.229L119.127 342.157" stroke="#4570B4" stroke-linecap="round" stroke-linejoin="round"/>
<path d="M119.785 357.165L126.736 350.093" stroke="#4570B4" stroke-linecap="round" stroke-linejoin="round"/>
<path d="M127.395 365.101L134.346 358.029" stroke="#4570B4" stroke-linecap="round" stroke-linejoin="round"/>
<path d="M134.272 372.538L141.223 365.466" stroke="#4570B4" stroke-linecap="round" stroke-linejoin="round"/>
<path d="M142.615 380.973L149.566 373.901" stroke="#4570B4" stroke-linecap="round" stroke-linejoin="round"/>
<path d="M150.225 388.91L157.176 381.838" stroke="#4570B4" stroke-linecap="round" stroke-linejoin="round"/>
<path d="M157.835 396.846L164.786 389.774" stroke="#4570B4" stroke-linecap="round" stroke-linejoin="round"/>
<path d="M165.445 404.782L172.396 397.71" stroke="#4570B4" stroke-linecap="round" stroke-linejoin="round"/>
<path d="M173.055 412.718L180.006 405.646" stroke="#4570B4" stroke-linecap="round" stroke-linejoin="round"/>
<path d="M180.665 420.654L187.616 413.582" stroke="#4570B4" stroke-linecap="round" stroke-linejoin="round"/>
<path d="M72.788 267.965L51.969 281.111L55.789 286.547L74.043 268.847L72.788 267.965Z" fill="#345B93"/>
<path d="M222.523 464.975L217.986 469.091C216.788 472.885 215.288 476.577 213.499 480.131C211.148 484.402 206.099 490.291 200.912 490.679C195.725 491.067 195.423 488.232 195.423 488.232C195.423 488.232 191.461 489.306 189.046 487.779C188.365 487.364 187.826 486.752 187.502 486.023C187.178 485.295 187.084 484.485 187.232 483.701C187.232 483.701 183.232 483.792 181.378 481.954C180.847 481.358 180.482 480.633 180.321 479.851C180.159 479.07 180.207 478.259 180.458 477.502C180.458 477.502 176.816 478.019 175.458 475.042C174.743 473.476 175.229 470.034 176.519 466.669C177.681 463.653 179.484 460.69 181.643 459.2C186.206 456.069 199.907 450.995 199.907 450.995L207.6 446.375L222.523 464.975Z" fill="#FFDDD3"/>
<path d="M312.95 398.738C305.282 448.075 231.492 483.112 231.492 483.112L225.05 475.458L200.65 446.531L270.121 379.307L241.213 301.207C240.145 295.791 240.206 290.213 241.391 284.822C242.576 279.431 244.861 274.342 248.102 269.873C258.977 254.899 280.281 252.038 294.185 264.178L294.276 264.269C295.55 265.349 296.676 266.593 297.623 267.969C297.945 268.459 298.235 268.969 298.493 269.495C305.75 283.958 320.323 351.363 312.95 398.738Z" fill="#D0DCFF"/>
<path d="M96.152 355.661C94.887 351.753 90.427 347.752 90.427 347.752C90.427 347.752 95.092 339.379 91.974 337.813C89.074 336.336 84.974 341.048 84.433 341.657C84.881 340.789 89.584 331.557 86.249 330.526C83.271 329.607 79.73 334.395 78.734 335.832C80.74 332.544 83.284 325.271 79.934 324.326C77.234 323.562 73.609 328.377 72.087 330.603C73.659 327.989 77.087 321.581 73.238 320.883C68.381 320.002 63.116 328.752 62.247 333.178C61.6679 336.171 61.7497 339.254 62.4868 342.211C63.2238 345.169 64.5983 347.93 66.514 350.301C66.9157 350.785 67.3426 351.247 67.793 351.686C73.301 357.097 84.599 362.609 84.599 362.609C90.133 363.892 97.418 359.556 96.152 355.661ZM84.433 341.669V341.682C84.4331 341.684 84.4329 341.685 84.4324 341.687C84.4319 341.688 84.431 341.69 84.4299 341.691C84.4287 341.692 84.4274 341.693 84.4258 341.694C84.4243 341.695 84.4227 341.695 84.421 341.695C84.421 341.682 84.421 341.682 84.433 341.669Z" fill="#FFDDD3"/>
<path d="M201.837 169.495C201.837 169.495 204.358 162.011 209.216 161.253C214.074 160.495 218.503 162.9 221.365 167.07C221.365 167.07 221.729 173.561 218.601 177.992C214.766 179.058 210.802 179.589 206.821 179.57C206.821 179.57 202.191 175.172 201.837 169.495Z" fill="white"/>
<path d="M207.172 171.592C207.746 175.692 211.096 178.604 214.655 178.092C218.214 177.58 220.634 173.844 220.062 169.742C219.49 165.64 216.139 162.731 212.579 163.242C209.019 163.753 206.599 167.491 207.172 171.592Z" fill="#00486E"/>
<path d="M214.704 168.579C214.791 168.873 214.96 169.136 215.191 169.336C215.422 169.537 215.706 169.667 216.009 169.711C216.312 169.755 216.622 169.711 216.901 169.584C217.179 169.458 217.416 169.254 217.582 168.997C217.749 168.739 217.838 168.44 217.839 168.134C217.84 167.828 217.754 167.527 217.589 167.269C217.425 167.011 217.19 166.805 216.912 166.676C216.634 166.547 216.325 166.501 216.022 166.542C215.802 166.589 215.593 166.679 215.407 166.807C215.221 166.935 215.063 167.098 214.94 167.287C214.818 167.476 214.734 167.688 214.693 167.91C214.653 168.131 214.657 168.359 214.704 168.579Z" fill="white"/>
<path d="M167.819 177.225C167.819 177.225 169.636 170.361 173.949 169.386C178.262 168.411 182.374 170.299 185.187 173.865C185.187 173.865 185.897 179.665 183.355 183.825C179.98 185.014 176.456 185.731 172.885 185.955C172.885 185.955 168.472 182.294 167.819 177.225Z" fill="white"/>
<path d="M172.727 178.781C173.484 182.423 176.66 184.83 179.821 184.157C182.982 183.484 184.932 179.985 184.175 176.341C183.418 172.697 180.242 170.292 177.081 170.965C173.92 171.638 171.97 175.139 172.727 178.781Z" fill="#00486E"/>
<path d="M179.303 175.623C179.359 176.026 179.573 176.39 179.897 176.636C180.221 176.882 180.63 176.989 181.033 176.934C181.425 176.819 181.755 176.554 181.954 176.198C182.152 175.841 182.203 175.421 182.094 175.027C182.038 174.624 181.824 174.26 181.5 174.014C181.175 173.769 180.767 173.661 180.364 173.716C179.972 173.831 179.642 174.096 179.443 174.453C179.245 174.809 179.195 175.23 179.303 175.623Z" fill="white"/>
<path d="M274.959 161.234C271.849 162.334 269.021 165.408 266.538 169.623C266.538 169.623 269.07 169.832 268.938 173.298C268.806 176.764 263.666 179.053 263.666 179.053C263.666 179.053 261.612 183.213 265.514 183.144C269.416 183.075 272.703 180.024 272.909 175.444C273.033 174.215 272.826 172.975 272.308 171.853C271.79 170.731 270.981 169.769 269.965 169.066C269.965 169.066 271.746 165.599 274.073 164.697C276.4 163.795 274.826 171.562 276.538 171.839C278.25 172.116 280.458 159.285 274.959 161.234Z" fill="#E5A5A1"/>
<path d="M261.341 103.91L240.057 114.517C240.057 114.517 244.347 107.954 250.007 105.365C253.57 103.813 257.501 103.308 261.341 103.91Z" fill="#0A597C"/>
<path d="M278.445 126.664C277.73 126.975 276.924 127.311 276.029 127.664L272.49 121.205L273.205 128.725C270.183 129.798 267.097 130.68 263.965 131.366L262.252 126.866L262.052 131.759C261.004 131.952 259.942 132.134 258.869 132.276C257.796 132.418 256.811 132.535 255.869 132.638L254.258 128.432L254.079 132.832C245.465 133.713 242.896 133.104 242.896 133.104L242.257 126.27C243.777 126.44 245.309 126.458 246.832 126.323L248.558 130.335V126.18C251.104 125.907 253.631 125.48 256.124 124.899L258.194 129.364L258.054 124.42C258.935 124.2 259.831 123.954 260.788 123.682C262.357 123.216 263.894 122.649 265.388 121.982L267.651 126.862L267.485 120.973C270.877 119.244 273.905 116.88 276.405 114.009C276.707 114.663 276.974 115.333 277.205 116.016C278.209 119.471 278.628 123.07 278.445 126.664Z" fill="#0A597C"/>
<path d="M152.789 121.265C152.789 121.265 159.643 131.656 183.42 133.301C197.956 134.176 212.435 130.825 225.109 123.653C225.109 123.653 199.527 131.434 181.819 128.661C164.111 125.888 152.789 121.265 152.789 121.265Z" fill="#0A597C"/>
<path d="M261.344 103.899L259.619 103.699C259.619 103.699 244.919 86.6151 227.464 85.9431C210.009 85.2711 186.198 94.0831 171.964 97.2291C157.73 100.375 152.973 97.2291 152.973 97.2291C152.973 97.2291 157.292 97.642 172.131 93.268C186.97 88.894 209.831 78.6551 233.526 83.0431C256.82 87.3441 261.204 103.365 261.344 103.899Z" fill="#0A597C"/>
<path d="M263.416 104.131L261.6 103.924C262.209 103.955 262.816 104.024 263.416 104.131Z" fill="#FFC9C3"/>
<path d="M140.818 114.551C140.818 114.551 143.295 115.623 150.78 114.006C155.218 113.07 159.357 111.054 162.831 108.138L158.531 107.872L140.818 114.551Z" fill="#0A597C"/>
<path d="M312.949 398.733C305.281 448.07 231.491 483.107 231.491 483.107L225.049 475.458C241.817 465.414 290.61 433.958 301.588 401.943C314.888 363.101 294.188 264.18 294.188 264.18L294.279 264.271C295.777 265.938 297.185 267.683 298.496 269.5C305.754 283.958 320.321 351.364 312.949 398.733Z" fill="#B6C6EF"/>
<path d="M271.322 383.078L295.558 399.224C295.558 399.224 295.288 378.641 271.322 383.078Z" fill="#B6C6EF"/>
<path d="M71.0009 332.507L67.7149 340.92C67.7149 340.92 65.6119 334.358 71.0009 332.507Z" fill="#E5A5A1"/>
<path d="M78.503 336.264L75.217 344.677C75.217 344.677 73.115 338.112 78.503 336.264Z" fill="#E5A5A1"/>
<path d="M83.889 341.826L80.603 350.239C80.603 350.239 78.504 343.678 83.889 341.826Z" fill="#E5A5A1"/>
<path d="M201.509 450.038L217.146 471.568L217.985 469.086L218.943 468.216L202.905 449.2L201.509 450.038Z" fill="#E5A5A1"/>
<path d="M217.983 469.09C216.785 472.884 215.285 476.576 213.496 480.13C211.145 484.401 206.096 490.29 200.909 490.678C195.722 491.066 195.423 488.232 195.423 488.232C195.423 488.232 191.461 489.306 189.046 487.779C188.365 487.364 187.826 486.752 187.502 486.023C187.178 485.295 187.084 484.485 187.232 483.701C187.232 483.701 183.232 483.792 181.378 481.954C180.847 481.358 180.482 480.633 180.321 479.852C180.159 479.07 180.207 478.26 180.458 477.502C180.458 477.502 176.816 478.019 175.458 475.042C174.743 473.476 175.229 470.034 176.519 466.669C176.774 468.376 177.67 469.922 179.024 470.991C182.589 473.632 184.506 472.933 184.506 472.933C184.506 472.933 183.267 477.255 186.014 478.77C187.591 479.67 189.458 479.917 191.214 479.456C192.224 481.076 193.704 482.35 195.457 483.106C197.089 483.821 198.868 484.136 200.646 484.025C203.643 483.836 206.552 482.936 209.132 481.398C213.123 478.901 216.283 468.545 216.283 468.545L217.983 469.09Z" fill="#E5A5A1"/>
<path d="M84.5999 362.61C84.5999 362.61 73.2999 357.098 67.7939 351.687C72.2789 354.301 78.5799 357.287 83.8829 357.287C93.3149 357.287 92.2159 352.563 92.2159 352.563L88.8039 347.851C88.8039 347.851 92.0879 341.885 91.1299 339.387C90.2229 337.031 84.9569 341.251 84.4299 341.677L84.4293 341.682L84.4268 341.686L84.4228 341.689L84.4179 341.69C84.4179 341.677 84.4179 341.677 84.4299 341.664V341.652C84.9679 341.043 89.0689 336.331 91.9709 337.808C95.0889 339.374 90.4239 347.747 90.4239 347.747C90.4239 347.747 94.8849 351.747 96.1489 355.656C97.4129 359.565 90.1329 363.892 84.5999 362.61Z" fill="#E5A5A1"/>
<path d="M481.031 366.842C478.934 369.922 476.734 373.007 474.431 376.096C470.622 381.222 466.547 386.359 462.252 391.486C458.674 395.796 454.941 400.084 451.052 404.351C450.337 405.166 449.595 405.982 448.852 406.784L436.444 354.91L413.261 258.164L412.839 256.391L411.267 249.816L420.354 247.628C420.354 247.628 461.518 275.184 474.591 332.053C477.567 345 479.625 356.683 481.031 366.842Z" fill="white"/>
<path d="M479.561 234.438C473.516 243.317 461.161 241.376 461.161 241.376L462.261 228.576C459.706 233.383 455.911 237.419 451.27 240.263C444.688 244.12 433.481 241.829 427.091 240.018C424.152 239.177 422.222 238.439 422.222 238.439L422.963 237.196C427.039 230.259 446.925 195.442 452.088 166.541C453.379 159.333 452.421 151.464 449.954 143.541C441.392 115.998 414.644 87.7571 400.995 84.0041C400.995 84.0041 412.433 74.6861 434.517 80.8461C464.038 89.0911 476.141 99.6911 487.771 136.5C503.139 185.127 485.605 225.559 479.561 234.438Z" fill="#19313E"/>
<path d="M474.436 376.096C470.627 381.222 466.552 386.359 462.257 391.486C458.679 395.796 454.934 400.093 451.057 404.351L436.438 354.91L407.364 256.61C409.252 257.381 411.232 257.904 413.255 258.164C413.715 258.228 414.2 258.293 414.712 258.319C417.514 258.57 420.338 258.239 423.006 257.348C423.006 257.348 447.433 276.309 464.454 323.601C469.874 338.654 472.877 357.459 474.436 376.096Z" fill="#00486E"/>
<path d="M461.158 241.376L462.258 228.576C459.703 233.383 455.908 237.419 451.267 240.263C444.685 244.12 433.478 241.829 427.088 240.018C425.643 239.182 424.263 238.239 422.96 237.196C427.036 230.258 446.922 195.442 452.085 166.541C453.376 159.333 452.418 151.464 449.951 143.541L471.141 123.285C471.141 123.285 481.241 148.576 482.873 186.678C484.505 224.78 461.158 241.376 461.158 241.376Z" fill="#003E54"/>
<path d="M474.487 153.469C474.487 153.469 474.487 173.944 469.362 193.501C468.736 195.921 468.021 198.328 467.215 200.684C466.538 202.665 465.815 204.594 465.004 206.471C457.733 223.464 442.92 228.871 428.045 228.201L426.185 260.726C426.185 260.726 414.271 267.704 375.071 247.787L378.74 190.916C375.908 190.954 373.098 190.43 370.47 189.375C367.842 188.319 365.449 186.754 363.429 184.769C354.982 176.64 355.302 161.485 362.408 155.985C364.188 154.498 366.435 153.684 368.755 153.686C371.075 153.688 373.321 154.506 375.098 155.997C374.267 130.953 378.421 110.621 394.549 103.812C414.333 95.4651 448.532 97.9761 462.539 109.236C476.546 120.496 474.487 153.469 474.487 153.469Z" fill="#FFDDD3"/>
<path d="M437.89 171.415C437.89 171.415 435.905 163.769 431.112 162.66C426.319 161.551 421.733 163.63 418.583 167.583C418.583 167.583 417.761 174.031 420.568 178.676C424.319 180.017 428.237 180.834 432.211 181.102C432.211 181.102 437.14 177.052 437.89 171.415Z" fill="white"/>
<path d="M459.599 141.99C444.608 160.628 416.199 157.223 416.199 157.223C416.199 157.223 411.699 167.797 404.454 173.363C397.209 178.929 391.454 177.543 391.454 177.543C391.454 177.543 389.115 164.458 381.588 158.243C380.232 157.036 378.539 156.272 376.737 156.055C374.934 155.837 373.108 156.176 371.504 157.026C368.82 158.526 366.328 161.726 366.904 168.532C367.217 172.269 368.355 175.889 370.236 179.133C372.117 182.376 374.694 185.162 377.781 187.29C380.254 189.073 383.098 190.272 386.101 190.797C386.459 190.849 386.829 190.887 387.201 190.914L385.002 228.39C385.002 228.39 378.036 231.678 365.883 228.39C353.73 225.102 351.225 219.538 351.225 219.538V203.415L346.225 218.156C346.225 218.156 333.739 217.043 326.237 206.47C324.397 203.901 323.098 200.986 322.417 197.901C320.41 188.945 323.337 178.371 328.96 165.829C336.999 147.891 352.335 135.323 352.335 135.323C353.757 127.198 356.195 119.284 359.593 111.767C362.468 105.203 366.358 99.1323 371.12 93.7771C376.802 87.309 384.339 82.7488 392.705 80.7171C426.189 72.9261 465.742 106.668 472.285 116.117C472.288 116.117 474.588 123.351 459.599 141.99Z" fill="#19313E"/>
<path d="M450.863 167.94L448.94 187.414C448.94 187.414 454.572 187.275 456.495 191.031C458.418 194.787 446.055 196.317 443.859 193.952C441.663 191.587 447.567 167.244 449.352 165.852C451.137 164.46 450.863 167.94 450.863 167.94Z" fill="#D68583"/>
<path d="M432.457 200.629C432.457 200.629 435.757 206.472 441.935 207.863C448.113 209.254 451.824 206.472 451.824 206.472L432.457 200.629Z" fill="#E5A5A1"/>
<path d="M432.426 173.121C431.566 177.17 428.019 179.83 424.504 179.064C420.989 178.298 418.84 174.393 419.704 170.344C420.568 166.295 424.111 163.635 427.626 164.401C431.141 165.167 433.285 169.072 432.426 173.121Z" fill="#19313E"/>
<path d="M425.124 169.57C425.06 170.018 424.82 170.423 424.458 170.694C424.096 170.966 423.64 171.083 423.192 171.019C422.757 170.889 422.39 170.594 422.171 170.196C421.952 169.798 421.898 169.33 422.021 168.893C422.085 168.445 422.325 168.041 422.687 167.769C423.05 167.497 423.505 167.38 423.953 167.444C424.388 167.574 424.755 167.87 424.974 168.267C425.193 168.665 425.247 169.133 425.124 169.57Z" fill="white"/>
<path d="M469.233 177.026C469.233 177.026 467.664 170.633 463.873 169.705C460.082 168.777 456.454 170.516 453.963 173.821C453.963 173.821 453.312 179.213 455.534 183.096C458.486 184.213 461.585 184.897 464.734 185.125C464.734 185.125 468.638 181.738 469.233 177.026Z" fill="white"/>
<path d="M464.907 178.452C464.225 181.837 461.42 184.061 458.641 183.421C455.862 182.781 454.16 179.521 454.841 176.132C455.522 172.743 458.327 170.521 461.107 171.163C463.887 171.805 465.587 175.071 464.907 178.452Z" fill="#19313E"/>
<path d="M458.829 156.145C458.829 156.145 465.223 154.491 469.229 157.228C469.229 157.228 469.096 152.12 464.771 151.207C460.446 150.294 458.829 156.145 458.829 156.145Z" fill="#19313E"/>
<path d="M428.039 228.199C428.039 228.199 408.969 225.264 399.286 208.253C399.286 208.253 399.698 218.003 408.351 228.199C417.004 238.395 427.423 239.088 427.423 239.088L428.039 228.199Z" fill="#E5A5A1"/>
<path d="M462.257 391.486C458.679 395.796 454.946 400.084 451.057 404.351C450.342 405.166 449.6 405.982 448.857 406.784C414.543 444.266 372.063 479.12 344.114 499.105L344.088 499.118C344.088 499.118 331.499 339.184 336.446 298.7C341.393 258.216 376.319 228.4 376.319 228.4C389.724 236.002 402.012 245.425 412.83 256.4C413.457 257.034 414.083 257.681 414.709 258.328C425.061 269.11 435.284 282.738 442.135 299.128C450.154 318.308 457.209 357.278 462.257 391.486Z" fill="white"/>
<path d="M586.924 378.154L586.246 383.901L576.125 469.828L575.332 476.506C575.219 477.471 575.04 478.427 574.796 479.367C573.528 484.461 570.448 488.92 566.132 491.909C561.816 494.898 556.56 496.214 551.345 495.61L459.879 484.543C455.658 484.02 451.685 482.266 448.456 479.499C445.226 476.733 442.882 473.076 441.718 468.986C440.899 466.155 440.656 463.189 441.003 460.262L441.718 454.153L443.379 440.136L451.635 370.182L452.607 361.911C453.749 351.856 457.954 342.395 464.652 334.809C471.349 327.223 480.216 321.878 490.052 319.498L491.534 306.853L491.942 303.435L560.417 311.719L559.97 315.55L558.599 327.135C568.094 331.57 575.945 338.891 581.031 348.053C586.118 357.215 588.18 367.75 586.924 378.154Z" fill="#8CB2FF"/>
<path d="M575.405 301.042C575.198 302.774 574.726 304.464 574.005 306.052C572.713 308.883 570.638 311.285 568.024 312.973C565.41 314.661 562.368 315.565 559.256 315.578C558.607 315.577 557.958 315.538 557.313 315.461L495.957 308.044C493.343 307.687 490.852 306.712 488.69 305.199C486.528 303.687 484.758 301.68 483.527 299.347C482.297 297.013 481.64 294.419 481.612 291.781C481.584 289.143 482.186 286.536 483.368 284.177C484.717 281.483 486.787 279.216 489.348 277.628C491.909 276.04 494.86 275.194 497.873 275.183C498.522 275.184 499.171 275.222 499.816 275.299L561.173 282.716C565.484 283.273 569.4 285.512 572.066 288.946C574.732 292.379 575.933 296.727 575.405 301.042Z" fill="#4570B4"/>
<path d="M586.247 383.902L576.126 469.829C563.563 471.861 532.431 471.097 505.696 467.137C490.513 464.885 478.487 462.71 468.996 460.756C455.347 457.947 446.912 455.605 441.723 454.156L443.384 440.139L451.64 370.185C464.292 373.213 490.785 378.636 527.808 381.522C555.409 383.668 574.388 384.044 586.247 383.902Z" fill="#4570B4"/>
<path d="M542.323 413.644L521.491 427.182L523.357 436.656C523.357 436.656 494.193 451.099 468.992 460.756C455.343 457.947 446.908 455.605 441.719 454.156L443.38 440.139L543.664 409.996L542.323 413.644Z" fill="#345B93"/>
<path d="M549.467 403.82L548.241 404.363C544.829 405.838 541.723 407.094 540.228 407.689L540.291 408.53C540.349 408.434 540.416 408.343 540.491 408.258C542.963 407.006 545.527 405.941 548.159 405.074C549.781 404.583 551.225 404.35 551.966 404.699C554.292 405.787 552.631 408.984 548.235 410.912C543.839 412.84 540.669 414.445 540.669 414.445L524.08 418.199L511.633 420.999L509.69 421.439L500.897 400.926L503.415 400.188L506.674 399.243L508.757 398.634C508.757 398.634 510.891 389.587 513.281 385.134C515.633 380.785 525.089 374.766 528.502 376.371C528.587 376.407 528.668 376.45 528.745 376.501C531.94 378.52 524.873 384.733 523.685 385.401L521.819 388.506L538.74 385.129C538.74 385.129 540.759 384.107 543.276 383.029C546.664 381.605 550.97 380.09 552.568 380.842C555.368 382.161 553.36 386.005 548.068 388.335C547.455 388.607 546.842 388.867 546.254 389.125C543.328 390.381 540.695 391.441 539.2 392.05L539.264 393.11C540.836 392.359 543.725 391.01 546.574 389.939C549.692 388.749 552.774 387.868 553.961 388.424C556.761 389.744 554.761 393.588 549.461 395.918C549.014 396.112 548.567 396.306 548.133 396.501C544.298 398.157 540.899 399.53 539.724 399.996L539.787 401.056C539.902 400.901 540.005 400.756 540.132 400.616C542.754 399.303 545.452 398.144 548.21 397.147C550.61 396.332 552.887 395.814 553.961 396.319C556.764 397.647 554.771 401.491 549.467 403.82Z" fill="#FFDDD3"/>
<path d="M515.063 429.629C515.063 429.629 398.128 491.129 371.941 456.629C350.305 428.142 335.57 368.035 331.57 325.881C330.759 317.979 330.401 310.036 330.496 302.093C330.545 299.592 330.763 297.097 331.148 294.625C335.391 267.433 370.548 259.446 386.115 282.019C386.255 282.225 386.409 282.446 386.549 282.653C401.17 304.241 407.368 404.172 407.368 404.172L499.23 389.365L511.843 421.45L515.063 429.629Z" fill="#D0DCFF"/>
<path d="M413.52 192.267C416.809 192.267 419.476 189.768 419.476 186.685C419.476 183.602 416.809 181.103 413.52 181.103C410.231 181.103 407.564 183.602 407.564 186.685C407.564 189.768 410.231 192.267 413.52 192.267Z" fill="#FFC9C3"/>
<path d="M469.362 193.501C468.736 195.921 468.021 198.328 467.215 200.684C466.253 201.258 465.153 201.558 464.033 201.552C463.27 201.601 462.506 201.493 461.786 201.235C461.067 200.977 460.408 200.574 459.851 200.051C459.293 199.528 458.849 198.897 458.545 198.195C458.241 197.494 458.084 196.738 458.084 195.974C458.084 195.209 458.241 194.453 458.545 193.752C458.849 193.05 459.293 192.419 459.851 191.896C460.408 191.373 461.067 190.97 461.786 190.712C462.506 190.454 463.27 190.346 464.033 190.395C465.12 190.38 466.19 190.661 467.129 191.208C468.068 191.755 468.84 192.548 469.362 193.501Z" fill="#FFC9C3"/>
<path d="M458.997 175.778C458.945 176.138 458.753 176.462 458.462 176.68C458.171 176.899 457.806 176.993 457.446 176.942C457.097 176.838 456.802 176.6 456.626 176.281C456.45 175.962 456.407 175.586 456.505 175.235C456.556 174.875 456.749 174.55 457.04 174.332C457.33 174.114 457.696 174.02 458.056 174.071C458.405 174.175 458.7 174.413 458.876 174.732C459.052 175.051 459.095 175.427 458.997 175.778Z" fill="white"/>
<path d="M392.913 106.575L388.868 114.645L388.881 105.025C386.507 104.064 384.428 103.135 382.615 102.243L375.34 110.292L378.222 99.8661C374.172 97.4221 372.129 95.3431 371.122 93.7781C366.36 99.1332 362.47 105.204 359.595 111.768C361.441 113.228 363.384 114.562 365.411 115.759L370.202 107.459L369.571 118.006C373.192 119.779 376.955 121.244 380.822 122.386C384.728 123.551 388.694 124.502 392.704 125.235L399.05 113.722L398.55 126.127C402.525 126.621 406.528 126.847 410.533 126.804L413.849 115.954L415.627 126.566C418.306 126.394 420.965 125.982 423.571 125.335L433.757 112.768C433.757 112.768 416.783 115.29 392.913 106.575Z" fill="#0A597C"/>
<path d="M495.1 481.076C470.945 478.04 457.048 472.105 449.4 467.347C456.038 465.481 462.577 463.281 468.993 460.756C455.344 457.947 446.909 455.605 441.72 454.156L441 460.266C440.913 461.009 440.863 461.757 440.851 462.505C440.851 462.766 440.872 463.022 440.877 463.283C440.886 463.765 440.886 464.248 440.926 464.723C440.938 464.856 440.965 464.984 440.979 465.117C441.04 465.717 441.11 466.307 441.219 466.89C441.228 466.942 441.245 466.99 441.255 467.046C441.381 467.698 441.53 468.346 441.712 468.975V468.989C442.877 473.079 445.22 476.735 448.45 479.501C451.679 482.267 455.651 484.022 459.871 484.545L551.336 495.612C556.554 496.219 561.814 494.905 566.132 491.915C570.451 488.925 573.532 484.464 574.8 479.366C548.453 483.76 521.611 484.336 495.1 481.076Z" fill="#7AA5EA"/>
<path d="M409.914 79.9981C409.914 79.9981 420.253 82.2541 434.858 91.6841C449.463 101.114 451.472 103.884 451.472 103.884C451.472 103.884 438.462 78.4791 409.914 79.9981Z" fill="#0A597C"/>
<path d="M418.475 149.971C418.475 149.971 434.313 150.387 447.458 143.453C460.603 136.519 463.158 125.425 463.158 125.425C463.158 125.425 449.327 143.731 418.475 149.971Z" fill="#0A597C"/>
<path d="M329.516 197.073C329.516 197.073 330.616 158.615 351.606 140.68L329.516 197.073Z" fill="#0A597C"/>
<path d="M387.201 190.913L385.001 228.395C385.001 228.395 378.035 231.683 365.882 228.395C353.729 225.107 351.224 219.543 351.224 219.543V203.415L346.224 218.156C346.224 218.156 333.738 217.043 326.236 206.47C324.396 203.901 323.097 200.986 322.416 197.901C334.816 200.851 358.672 203.48 386.098 190.796C386.456 190.848 386.83 190.887 387.201 190.913Z" fill="#19313E"/>
<path d="M374.359 162.937C377.469 164.037 380.297 167.111 382.78 171.327C382.78 171.327 380.248 171.534 380.38 175.002C380.512 178.47 385.652 180.756 385.652 180.756C385.652 180.756 387.706 184.916 383.804 184.847C379.902 184.778 376.615 181.727 376.409 177.147C376.285 175.918 376.492 174.678 377.01 173.556C377.528 172.434 378.337 171.472 379.353 170.769C379.353 170.769 377.572 167.302 375.245 166.401C372.918 165.5 374.492 173.265 372.78 173.542C371.068 173.819 368.861 160.991 374.359 162.937Z" fill="#E5A5A1"/>
<path d="M437.893 171.415C438.13 169.498 437.848 167.552 437.077 165.78C436.307 164.009 435.075 162.476 433.511 161.342C428.103 157.528 419.545 163.006 418.997 163.283C418.449 163.56 416.269 162.964 416.269 162.964C416.315 163.852 416.544 164.721 416.943 165.516C417.342 166.311 417.901 167.015 418.586 167.582C418.586 167.582 423.705 161.872 429.609 162.52C435.513 163.168 437.893 171.415 437.893 171.415Z" fill="#19313E"/>
<path d="M453.963 173.821C453.963 173.821 458.838 168.171 463.873 169.705C468.292 171.052 469.233 177.291 469.233 177.291C469.233 177.291 471.577 176.977 472.416 175.691L470.243 174.755C470.243 174.755 469.799 170.316 466.343 168.306C462.887 166.296 456.27 168.792 453.963 173.821Z" fill="#19313E"/>
<path d="M491.096 310.6C491.096 310.6 499.123 315.036 522.496 319.1C545.869 323.164 559.468 319.828 559.468 319.828L560.424 311.716L491.946 303.436L491.096 310.6Z" fill="#7AA5EA"/>
<path d="M515.063 429.628C515.063 429.628 397.975 490.901 371.788 456.395C350.152 427.909 335.416 367.801 331.417 325.647C340.925 363.893 361.181 432.826 386.14 446.079C421.068 464.626 511.676 421.203 511.676 421.203L511.689 421.216L515.063 429.628Z" fill="#B6C6EF"/>
<path d="M405.768 406.553C405.768 406.553 402.984 426.391 398.625 436.653C398.625 436.653 404.673 437.207 408.78 426.668C412.887 416.129 405.768 406.553 405.768 406.553Z" fill="#B6C6EF"/>
<path d="M548.24 410.913C543.84 412.854 540.675 414.446 540.675 414.446L524.086 418.2L511.639 421L511.575 420.755L511.512 420.768L503.422 400.189L503.322 399.942L506.568 398.997L506.683 399.244L510.798 408.251C512.025 410.982 514.16 413.204 516.84 414.538C519.52 415.873 522.579 416.239 525.498 415.574C526.525 415.337 527.625 415.075 528.798 414.788C538.409 412.445 543.815 411.021 547.198 409.714C548.31 409.276 549.314 408.601 550.139 407.736C550.965 406.87 551.592 405.836 551.977 404.704C554.297 405.788 552.636 408.985 548.24 410.913Z" fill="#E5A5A1"/>
<path d="M523.69 385.403L521.823 388.508C521.823 388.508 517.656 390.658 517.197 389.828C516.738 388.998 519.842 386.128 523.958 382.245C525.781 380.544 527.317 378.559 528.507 376.368C528.592 376.404 528.674 376.447 528.751 376.498C531.945 378.516 524.878 384.73 523.69 385.403Z" fill="#E5A5A1"/>
<path d="M537.988 394.173C537.21 395.217 536.098 395.964 534.838 396.291C532.921 396.669 531.758 396.884 531.278 396.291C530.798 395.698 536.481 394.034 537.988 394.173Z" fill="#E5A5A1"/>
<path d="M538.741 400.898C537.963 401.942 536.852 402.69 535.592 403.018C533.674 403.395 532.51 403.611 532.031 403.018C531.552 402.425 537.235 400.76 538.741 400.898Z" fill="#E5A5A1"/>
<path d="M539.563 408.756C538.785 409.8 537.674 410.548 536.414 410.876C534.496 411.253 533.332 411.469 532.853 410.876C532.374 410.283 538.056 408.616 539.563 408.756Z" fill="#E5A5A1"/>
<path d="M373.32 230.591L409.342 283.724L425.213 280.766L422.803 294.759L454.003 342.246C454.003 342.246 450.479 297.094 420.779 264.339C391.079 231.584 377.207 226.039 377.207 226.039L373.32 230.591Z" fill="#D0DCFF"/>
<path d="M574.006 306.051C572.714 308.882 570.639 311.284 568.025 312.972C565.411 314.66 562.369 315.564 559.257 315.577C558.607 315.576 557.959 315.537 557.314 315.46L495.958 308.043C493.344 307.686 490.852 306.711 488.691 305.198C486.529 303.686 484.759 301.679 483.528 299.346C482.298 297.012 481.641 294.418 481.613 291.78C481.585 289.142 482.187 286.535 483.369 284.176C487.511 288.371 496.097 295.113 511.715 299.876C531.677 305.948 560.892 307.527 574.006 306.051Z" fill="#345B93"/>
<path d="M523.587 281.755C523.587 281.755 560.101 284.343 565.212 286.748C570.323 289.153 566.312 292.848 538.375 288.411C510.438 283.974 519.049 281.411 523.587 281.755Z" fill="#6990C9"/>
<path d="M492.368 322.987C492.368 322.987 497.238 327.239 515.342 330.568C533.446 333.897 556.815 331.123 558.093 330.568C559.371 330.013 565.637 335.603 568.393 338.704C570.693 341.292 532.536 345.568 509.167 339.443C489.324 334.243 487.077 330.198 479.774 335.191C472.471 340.184 466.274 350.044 463.537 346.47C460.8 342.896 477.763 323.357 492.368 322.987Z" fill="#ABCBFF"/>
<path opacity="0.22" d="M71.835 182.292H58.073V168.353H39.346V182.292H25.583V201.256H39.346V215.195H58.073V201.256H71.836L71.835 182.292Z" fill="#0A9A73"/>
<path opacity="0.18" d="M593.525 236.071H582.716V225.124H568.009V236.071H557.2V250.965H568.009V261.912H582.716V250.965H593.525V236.071Z" fill="#0A9A73"/>
<g opacity="0.36">
<path d="M523.117 72.021C520.131 78.421 509.843 79.851 500.131 75.202C490.419 70.553 484.987 61.591 487.983 55.189C489.87 51.135 494.698 49.084 500.442 49.297C501.224 49.3235 502.004 49.3903 502.779 49.4971C505.622 49.9098 508.384 50.7574 510.969 52.01C520.674 56.664 526.113 65.619 523.117 72.021Z" fill="#13B287"/>
<path d="M487.982 55.1851L486.389 58.5481C485.626 60.156 485.41 61.9699 485.775 63.7121C486.55 67.3751 489.03 73.5041 496.912 78.0191C505.241 82.7881 512.433 81.7021 516.545 80.0061C518.589 78.9397 520.282 77.3059 521.42 75.3011L522.766 72.6931C519.423 75.0765 515.482 76.4834 511.385 76.7565C507.288 77.0297 503.196 76.1585 499.566 74.2401C486.618 67.6261 487.982 55.1851 487.982 55.1851Z" fill="#09916C"/>
<path d="M512.224 77.6251H509.475L500.441 49.2971C501.223 49.3236 502.002 49.3904 502.777 49.4971L512.224 77.6251Z" fill="#09916C"/>
</g>
</svg>
