<svg width="33" height="33" viewBox="0 0 33 33" fill="none" xmlns="http://www.w3.org/2000/svg">
<path d="M25.8735 19.8669C25.5752 19.5433 25.2144 19.2835 24.8129 19.1032C24.4114 18.9229 23.9776 18.8259 23.5375 18.8179C23.0938 18.8271 22.6562 18.9239 22.25 19.1028C21.8438 19.2816 21.477 19.5389 21.1705 19.8599L18.9835 21.9919C18.8035 21.8969 18.6235 21.8089 18.4505 21.7209C18.2015 21.5989 17.9665 21.4839 17.7655 21.3619C15.6025 19.9902 13.6773 18.2755 12.0655 16.2849C11.3237 15.406 10.6958 14.437 10.1965 13.4009C10.7645 12.8929 11.2895 12.3649 11.8025 11.8579C11.9965 11.6679 12.1905 11.4719 12.3835 11.2829C12.7249 10.9956 12.9994 10.6371 13.1877 10.2325C13.376 9.82798 13.4735 9.38715 13.4735 8.94092C13.4735 8.4947 13.376 8.05386 13.1877 7.64931C12.9994 7.24475 12.7249 6.88625 12.3835 6.59892L10.4955 4.74892C10.2805 4.53892 10.0595 4.32292 9.85151 4.10592C9.43651 3.68592 9.00051 3.25292 8.55151 2.84692C7.94123 2.22055 7.10792 1.86105 6.23351 1.84692C5.34955 1.86425 4.50648 2.22254 3.88051 2.84692L3.86651 2.86092L1.51251 5.18492C0.643949 6.01521 0.110221 7.13533 0.0125094 8.33292C-0.0672726 10.0522 0.23533 11.7677 0.898509 13.3559C2.14314 16.523 3.9351 19.4466 6.19251 21.9929C9.17783 25.4988 12.8746 28.3298 17.0375 30.2979C18.9407 31.2573 21.0059 31.8541 23.1275 32.0579C23.2725 32.0649 23.4275 32.0719 23.5635 32.0719C24.31 32.0909 25.0521 31.9511 25.7405 31.6616C26.4289 31.3722 27.0479 30.9397 27.5565 30.3929C27.5635 30.3789 27.5775 30.3729 27.5845 30.3589C27.9652 29.9285 28.3695 29.5196 28.7955 29.1339C29.0955 28.8559 29.3955 28.5649 29.6955 28.2609C30.0148 27.9583 30.2712 27.5957 30.45 27.1938C30.6288 26.7919 30.7265 26.3587 30.7375 25.9189C30.7276 25.4796 30.6279 25.047 30.4446 24.6477C30.2613 24.2484 29.9982 23.8908 29.6715 23.5969L25.8735 19.8669ZM28.3515 26.9949C28.3445 26.9949 28.3445 27.0019 28.3515 26.9949C28.0815 27.2789 27.8045 27.5369 27.5075 27.8209C27.0386 28.2484 26.5926 28.7003 26.1715 29.1749C25.8412 29.5309 25.4379 29.8114 24.9891 29.9971C24.5404 30.1828 24.0568 30.2694 23.5715 30.2509C23.4715 30.2509 23.3565 30.2509 23.2535 30.2439C21.3709 30.0553 19.5397 29.5182 17.8535 28.6599C13.9329 26.8038 10.4509 24.1367 7.63751 20.8349C5.51487 18.4417 3.82833 15.6947 2.65451 12.7189C2.07436 11.3848 1.80918 9.93502 1.87951 8.48192C1.93612 7.71629 2.27672 6.99943 2.83451 6.47192L5.19451 4.16392C5.47229 3.87711 5.84787 3.70539 6.24651 3.68292C6.63178 3.70447 6.99375 3.87434 7.25651 4.15692L7.27751 4.17692C7.69951 4.56292 8.10151 4.96192 8.52351 5.38892C8.73851 5.60592 8.95951 5.82192 9.18051 6.04592L11.0695 7.89392C11.2397 8.01114 11.3788 8.16795 11.4749 8.35086C11.571 8.53377 11.6212 8.7373 11.6212 8.94392C11.6212 9.15055 11.571 9.35408 11.4749 9.53699C11.3788 9.7199 11.2397 9.87671 11.0695 9.99392C10.8695 10.1939 10.6755 10.3869 10.4695 10.5759C9.88851 11.1579 9.33451 11.6999 8.73251 12.2279C8.71851 12.2419 8.70451 12.2479 8.69751 12.2619C8.48494 12.4487 8.336 12.6973 8.27146 12.9728C8.20693 13.2483 8.23002 13.5371 8.33751 13.7989L8.35851 13.8599C8.92951 15.1495 9.68214 16.3506 10.5935 17.4269L10.6005 17.4339C12.3359 19.5811 14.4122 21.4287 16.7465 22.9029C17.0223 23.0685 17.3064 23.2201 17.5975 23.3569C17.8465 23.4789 18.0815 23.5939 18.2825 23.7159C18.3105 23.7299 18.3375 23.7499 18.3655 23.7629C18.5775 23.872 18.8121 23.9298 19.0505 23.9319C19.248 23.9276 19.4428 23.8841 19.6234 23.804C19.8039 23.7238 19.9668 23.6085 20.1025 23.4649L22.4755 21.1489C22.7466 20.8528 23.1202 20.6712 23.5205 20.6409C23.7119 20.6515 23.8992 20.7007 24.071 20.7856C24.2429 20.8705 24.3958 20.9893 24.5205 21.1349L24.5345 21.1489L28.3475 24.8789C28.5123 25.0016 28.6461 25.161 28.7385 25.3445C28.8308 25.528 28.8791 25.7305 28.8795 25.9359C28.8799 26.1413 28.8324 26.344 28.7407 26.5278C28.6491 26.7117 28.5158 26.8716 28.3515 26.9949Z" fill="#0A9A73"/>
<path d="M17.6795 7.62875C19.4833 7.9236 21.1514 8.77008 22.4545 10.0518C23.7524 11.3085 24.6197 12.9434 24.9325 14.7228C24.9715 14.9375 25.0853 15.1314 25.2537 15.2702C25.4221 15.409 25.6342 15.4836 25.8525 15.4807C25.9057 15.4794 25.9588 15.4748 26.0115 15.4667C26.1316 15.4486 26.2469 15.4068 26.3507 15.3438C26.4546 15.2807 26.5448 15.1976 26.6163 15.0994C26.6878 15.0011 26.739 14.8896 26.767 14.7714C26.795 14.6532 26.7992 14.5306 26.7795 14.4107C26.4006 12.2575 25.3505 10.2792 23.7795 8.75875C22.2002 7.21099 20.1823 6.18754 18.0005 5.82775C17.7587 5.78583 17.5102 5.84038 17.3083 5.97968C17.1064 6.11898 16.9671 6.33191 16.9205 6.57275C16.8991 6.69213 16.9019 6.81459 16.9287 6.93287C16.9555 7.05114 17.0058 7.16283 17.0766 7.26131C17.1473 7.35979 17.2372 7.44306 17.3408 7.50618C17.4443 7.56929 17.5595 7.61097 17.6795 7.62875Z" fill="#0A9A73"/>
<path d="M32.7104 14.1478C32.089 10.6024 30.3615 7.34455 27.7754 4.84084C25.1757 2.29146 21.8531 0.60586 18.2604 0.0138365C18.0195 -0.0282072 17.7717 0.0264338 17.5709 0.165905C17.37 0.305376 17.2322 0.518427 17.1874 0.758836C17.1682 0.878639 17.1728 1.00106 17.2011 1.11906C17.2293 1.23707 17.2806 1.34833 17.3519 1.44646C17.4233 1.54458 17.5134 1.62764 17.6169 1.69086C17.7205 1.75408 17.8355 1.79621 17.9554 1.81484C21.1662 2.3447 24.1361 3.85023 26.4614 6.12684C28.7732 8.36431 30.3167 11.2766 30.8704 14.4458C30.9094 14.6607 31.0234 14.8548 31.192 14.9936C31.3607 15.1324 31.573 15.2069 31.7914 15.2038C31.8447 15.2025 31.8978 15.1979 31.9504 15.1898C32.0694 15.1728 32.1838 15.1322 32.2869 15.0702C32.3899 15.0083 32.4795 14.9264 32.5503 14.8292C32.6212 14.7321 32.6718 14.6218 32.6993 14.5047C32.7268 14.3877 32.7306 14.2663 32.7104 14.1478Z" fill="#0A9A73"/>
</svg>
