<svg width="39" height="39" viewBox="0 0 39 39" fill="none" xmlns="http://www.w3.org/2000/svg">
<path d="M32.871 21.191V18.121H33.871C33.97 18.1209 34.068 18.1012 34.1595 18.0632C34.2509 18.0252 34.3339 17.9696 34.4039 17.8995C34.4738 17.8293 34.5292 17.7461 34.567 17.6546C34.6048 17.5631 34.6241 17.465 34.624 17.366V12.836C34.624 12.7544 34.6108 12.6734 34.585 12.596L30.543 0.515C30.4931 0.365266 30.3974 0.234991 30.2695 0.14258C30.1416 0.0501686 29.9878 0.000293176 29.83 0L4.791 0C4.63301 8.35891e-05 4.47904 0.049862 4.3509 0.142288C4.22276 0.234714 4.12694 0.365104 4.077 0.515L0.0390007 12.6C0.0131537 12.6774 -1.61746e-05 12.7584 6.64069e-07 12.84V17.37C-0.000130745 17.469 0.0192419 17.5671 0.0570126 17.6586C0.0947833 17.7501 0.150212 17.8333 0.220135 17.9035C0.290057 17.9736 0.373104 18.0292 0.464533 18.0672C0.555963 18.1052 0.653984 18.1249 0.753001 18.125H1.753V30.957C1.75287 31.056 1.77224 31.1541 1.81001 31.2456C1.84778 31.3371 1.90321 31.4203 1.97313 31.4905C2.04306 31.5606 2.1261 31.6162 2.21753 31.6542C2.30896 31.6922 2.40698 31.7119 2.506 31.712H20.72C21.0866 33.2164 21.8337 34.6014 22.8897 35.734C23.9456 36.8665 25.2749 37.7087 26.7499 38.1797C28.225 38.6507 29.7964 38.7347 31.3133 38.4236C32.8301 38.1125 34.2416 37.4168 35.4122 36.4032C36.5828 35.3896 37.4733 34.0922 37.9982 32.6354C38.5231 31.1786 38.6648 29.6114 38.4096 28.0841C38.1545 26.5568 37.5111 25.1208 36.5412 23.9137C35.5713 22.7066 34.3075 21.7691 32.871 21.191ZM21.8 16.611V13.591H33.116V16.611H21.8ZM14.33 18.121H20.295V21.043C20.2994 21.081 20.2962 21.1195 20.2855 21.1562C20.2749 21.193 20.257 21.2272 20.233 21.257C20.214 21.2591 20.1947 21.2553 20.178 21.246L17.596 20.194C17.4143 20.1199 17.2107 20.1199 17.029 20.194L14.447 21.246C14.4302 21.2552 14.411 21.259 14.392 21.257C14.368 21.2272 14.3501 21.193 14.3395 21.1562C14.3288 21.1195 14.3256 21.081 14.33 21.043V18.121ZM14.33 16.611V13.591H20.295V16.611H14.33ZM19.439 1.511L20.239 12.082H14.387L15.187 1.511H19.439ZM32.822 12.081H21.744L20.944 1.51H29.286L32.822 12.081ZM5.333 1.51H13.675L12.875 12.081H1.8L5.333 1.51ZM1.506 16.61V13.59H12.823V16.61H1.506ZM3.255 30.2V28.69H6.642C6.84224 28.69 7.03428 28.6105 7.17587 28.4689C7.31746 28.3273 7.397 28.1352 7.397 27.935C7.397 27.7348 7.31746 27.5427 7.17587 27.4011C7.03428 27.2595 6.84224 27.18 6.642 27.18H3.255V18.12H12.822V21.042C12.812 21.3276 12.8732 21.6113 13.0001 21.8674C13.127 22.1235 13.3157 22.344 13.549 22.509C13.7621 22.652 14.0076 22.7394 14.2632 22.7631C14.5187 22.7869 14.7762 22.7463 15.012 22.645L17.312 21.708L19.612 22.645C19.8077 22.7259 20.0172 22.7681 20.229 22.769C20.5303 22.7695 20.8247 22.6792 21.074 22.51C21.3073 22.345 21.496 22.1245 21.6229 21.8684C21.7498 21.6123 21.811 21.3286 21.801 21.043V18.121H31.368V20.731C30.05 20.4528 28.6865 20.473 27.3774 20.79C26.0682 21.1071 24.8465 21.7129 23.8019 22.5633C22.7572 23.4136 21.916 24.4869 21.3398 25.7044C20.7636 26.922 20.4671 28.253 20.472 29.6C20.472 29.8 20.479 30 20.493 30.2H3.255ZM29.5 37.148C28.0058 37.152 26.5441 36.7125 25.2998 35.8852C24.0555 35.0579 23.0847 33.88 22.5103 32.5007C21.9358 31.1213 21.7836 29.6026 22.0728 28.1366C22.362 26.6707 23.0797 25.3236 24.135 24.2657C25.1903 23.2079 26.5357 22.487 28.0009 22.1943C29.4662 21.9016 30.9853 22.0502 32.366 22.6214C33.7467 23.1925 34.9269 24.1605 35.7572 25.4028C36.5874 26.6451 37.0304 28.1058 37.03 29.6C37.0303 31.5988 36.2376 33.5161 34.8259 34.9312C33.4142 36.3462 31.4988 37.1435 29.5 37.148Z" fill="#F3272E"/>
<path d="M10.031 27.1831C9.83076 27.1831 9.63872 27.2626 9.49713 27.4042C9.35554 27.5458 9.276 27.7379 9.276 27.9381C9.276 28.1383 9.35554 28.3304 9.49713 28.472C9.63872 28.6136 9.83076 28.6931 10.031 28.6931C10.2312 28.6931 10.4233 28.6136 10.5649 28.472C10.7065 28.3304 10.786 28.1383 10.786 27.9381C10.786 27.7379 10.7065 27.5458 10.5649 27.4042C10.4233 27.2626 10.2312 27.1831 10.031 27.1831Z" fill="#F3272E"/>
<path d="M31.45 26.5771H27.867L28.087 26.3561C28.223 26.2139 28.298 26.0241 28.296 25.8273C28.2939 25.6305 28.215 25.4423 28.0761 25.3029C27.9372 25.1635 27.7494 25.0839 27.5526 25.0811C27.3558 25.0784 27.1657 25.1527 27.023 25.2881L25.518 26.7981C25.3768 26.94 25.2975 27.132 25.2975 27.3321C25.2975 27.5323 25.3768 27.7243 25.518 27.8661L27.023 29.3761C27.0928 29.4461 27.1757 29.5017 27.267 29.5396C27.3583 29.5775 27.4561 29.5971 27.555 29.5971C27.6538 29.5971 27.7517 29.5775 27.843 29.5396C27.9343 29.5017 28.0172 29.4461 28.087 29.3761C28.2282 29.2343 28.3074 29.0423 28.3074 28.8421C28.3074 28.642 28.2282 28.45 28.087 28.3081L27.867 28.0871H31.45C31.8505 28.0871 32.2345 28.2462 32.5177 28.5294C32.8009 28.8126 32.96 29.1966 32.96 29.5971C32.96 29.9976 32.8009 30.3817 32.5177 30.6648C32.2345 30.948 31.8505 31.1071 31.45 31.1071H25.297C25.0968 31.1071 24.9047 31.1867 24.7631 31.3283C24.6215 31.4699 24.542 31.6619 24.542 31.8621C24.542 32.0624 24.6215 32.2544 24.7631 32.396C24.9047 32.5376 25.0968 32.6171 25.297 32.6171H31.45C32.2509 32.6171 33.0191 32.2989 33.5854 31.7326C34.1518 31.1662 34.47 30.3981 34.47 29.5971C34.47 28.7962 34.1518 28.028 33.5854 27.4617C33.0191 26.8953 32.2509 26.5771 31.45 26.5771Z" fill="#F3272E"/>
</svg>
