<svg width="45" height="33" viewBox="0 0 45 33" fill="none" xmlns="http://www.w3.org/2000/svg">
<path d="M10.4579 23.7139C9.54555 23.6923 8.64741 23.943 7.8782 24.4342C7.10899 24.9253 6.50362 25.6346 6.1394 26.4714C5.77517 27.3083 5.66861 28.2347 5.83334 29.1323C5.99806 30.03 6.42658 30.8581 7.06419 31.5111C7.7018 32.1641 8.51956 32.6122 9.41304 32.7983C10.3065 32.9843 11.2352 32.8998 12.0804 32.5556C12.9257 32.2114 13.6492 31.6231 14.1585 30.8658C14.6678 30.1085 14.9399 29.2166 14.9399 28.304C14.953 27.1013 14.4885 25.9426 13.6482 25.082C12.8079 24.2215 11.6606 23.7295 10.4579 23.7139ZM10.4579 31.364C9.84959 31.3785 9.25072 31.2113 8.73781 30.8839C8.2249 30.5564 7.82122 30.0835 7.57834 29.5256C7.33545 28.9676 7.26438 28.3499 7.3742 27.7514C7.48402 27.1529 7.76973 26.6007 8.19487 26.1653C8.62001 25.7299 9.16527 25.4311 9.76102 25.3071C10.3568 25.183 10.976 25.2394 11.5395 25.4689C12.1031 25.6985 12.5855 26.0908 12.925 26.5957C13.2646 27.1007 13.446 27.6954 13.4459 28.304C13.4545 29.1057 13.1447 29.8781 12.5846 30.4517C12.0244 31.0253 11.2596 31.3534 10.4579 31.364Z" fill="#12A2D8"/>
<path d="M35.856 23.7139C34.9436 23.6923 34.0455 23.943 33.2763 24.4342C32.5071 24.9253 31.9017 25.6346 31.5375 26.4714C31.1732 27.3083 31.0667 28.2347 31.2314 29.1323C31.3961 30.03 31.8247 30.8581 32.4623 31.5111C33.0999 32.1641 33.9176 32.6122 34.8111 32.7983C35.7046 32.9843 36.6333 32.8998 37.4785 32.5556C38.3238 32.2114 39.0472 31.6231 39.5566 30.8658C40.0659 30.1085 40.338 29.2166 40.338 28.304C40.3511 27.1013 39.8865 25.9426 39.0463 25.082C38.206 24.2215 37.0586 23.7295 35.856 23.7139ZM35.856 31.364C35.2477 31.3785 34.6488 31.2113 34.1359 30.8839C33.623 30.5564 33.2193 30.0835 32.9764 29.5256C32.7335 28.9676 32.6625 28.3499 32.7723 27.7514C32.8821 27.1529 33.1678 26.6007 33.5929 26.1653C34.0181 25.7299 34.5634 25.4311 35.1591 25.3071C35.7549 25.183 36.374 25.2394 36.9376 25.4689C37.5012 25.6985 37.9836 26.0908 38.3231 26.5957C38.6627 27.1007 38.844 27.6954 38.844 28.304C38.8526 29.1057 38.5428 29.8781 37.9827 30.4517C37.4225 31.0253 36.6577 31.3534 35.856 31.364Z" fill="#12A2D8"/>
<path d="M44.7009 19.476L37.9779 8.76605C37.9116 8.65915 37.8191 8.57085 37.7092 8.50946C37.5994 8.44807 37.4758 8.41558 37.3499 8.41504H29.1329C29.0337 8.41621 28.9356 8.43695 28.8443 8.47603C28.753 8.51511 28.6704 8.57178 28.601 8.64282C28.5316 8.71386 28.4769 8.79787 28.44 8.89005C28.4031 8.98222 28.3847 9.08076 28.3859 9.18004V28.304C28.3846 28.4034 28.4029 28.502 28.4398 28.5942C28.4766 28.6864 28.5313 28.7705 28.6007 28.8416C28.6701 28.9126 28.7528 28.9693 28.8442 29.0083C28.9355 29.0474 29.0336 29.068 29.1329 29.069H32.1189V27.539H29.8779V9.94504H36.9399L43.3239 20.114V27.539H39.5889V29.069H44.0709C44.1702 29.068 44.2684 29.0474 44.3597 29.0083C44.451 28.9693 44.5338 28.9126 44.6032 28.8416C44.6726 28.7705 44.7273 28.6864 44.7641 28.5942C44.801 28.502 44.8193 28.4034 44.8179 28.304V19.889C44.8185 19.7431 44.778 19.6 44.7009 19.476Z" fill="#12A2D8"/>
<path d="M32.8681 18.3601V13.0051H38.8441V11.4751H32.1211C32.0218 11.4763 31.9237 11.497 31.8325 11.5361C31.7412 11.5752 31.6585 11.6318 31.5891 11.7029C31.5198 11.7739 31.4651 11.8579 31.4282 11.9501C31.3913 12.0423 31.3729 12.1408 31.3741 12.2401V19.1251C31.3728 19.2244 31.391 19.323 31.4279 19.4153C31.4647 19.5075 31.5194 19.5915 31.5888 19.6626C31.6582 19.7337 31.741 19.7903 31.8323 19.8294C31.9236 19.8684 32.0218 19.889 32.1211 19.8901H43.3211V18.3601H32.8681Z" fill="#12A2D8"/>
<path d="M29.1331 3.06006H0.747054C0.647773 3.06123 0.549695 3.08195 0.458422 3.12103C0.367149 3.16011 0.284468 3.2168 0.215102 3.28783C0.145735 3.35887 0.0910408 3.44288 0.0541427 3.53506C0.0172446 3.62723 -0.00113475 3.72578 5.42095e-05 3.82506V28.3041C-0.00113475 28.4033 0.0172446 28.5019 0.0541427 28.5941C0.0910408 28.6862 0.145735 28.7702 0.215102 28.8413C0.284468 28.9123 0.367149 28.969 0.458422 29.0081C0.549695 29.0472 0.647773 29.0679 0.747054 29.0691H6.72305V27.5391H1.49405V4.59306H28.3861V27.5421H14.1931V29.0721H29.1331C29.2324 29.071 29.3305 29.0504 29.4218 29.0113C29.5132 28.9723 29.5959 28.9156 29.6653 28.8446C29.7347 28.7735 29.7894 28.6894 29.8262 28.5972C29.8631 28.505 29.8814 28.4064 29.8801 28.3071V3.82506C29.8812 3.72578 29.8629 3.62723 29.826 3.53506C29.7891 3.44288 29.7344 3.35887 29.665 3.28783C29.5956 3.2168 29.513 3.16011 29.4217 3.12103C29.3304 3.08195 29.2323 3.06123 29.1331 3.06006Z" fill="#12A2D8"/>
<path d="M5.22895 24.479H0.746948V26.009H5.22895V24.479Z" fill="#12A2D8"/>
<path d="M28.386 24.479H15.687V26.009H28.386V24.479Z" fill="#12A2D8"/>
<path d="M44.073 24.479H41.085V26.009H44.073V24.479Z" fill="#12A2D8"/>
<path d="M29.133 6.12012H2.98804V7.65012H29.133V6.12012Z" fill="#12A2D8"/>
<path d="M11.2051 27.5391H9.71106V29.0691H11.2051V27.5391Z" fill="#12A2D8"/>
<path d="M36.603 27.5391H35.109V29.0691H36.603V27.5391Z" fill="#12A2D8"/>
<path d="M13.446 0H2.98804V1.53H13.446V0Z" fill="#12A2D8"/>
<path d="M1.494 0H0V1.53H1.494V0Z" fill="#12A2D8"/>
</svg>
